
<svg width="951" height="414" viewBox="0 0 951 414" fill="none" xmlns="http://www.w3.org/2000/svg">
<path d="M98.24 265.6L9.6 194.88C7.89333 193.173 7.04 191.253 7.04 189.12C7.04 186.987 7.89333 185.28 9.6 184L96 115.2C96.64 114.56 97.3867 114.667 98.24 115.52L113.92 135.04C114.56 136.32 114.667 137.173 114.24 137.6L50.24 189.44L116.48 243.2C117.12 243.84 117.12 244.693 116.48 245.76L100.48 265.28C99.6267 266.133 98.88 266.24 98.24 265.6ZM165.69 304C164.837 304 164.623 303.467 165.05 302.4L230.97 119.04H143.61C142.757 119.04 142.33 118.613 142.33 117.76V82.88C142.33 81.8133 142.757 81.28 143.61 81.28H267.45C268.303 81.28 268.73 81.8133 268.73 82.88V118.72L207.29 302.4C206.863 303.467 206.223 304 205.37 304H165.69ZM845.103 265.6C844.463 266.24 843.716 266.133 842.863 265.28L826.863 245.76C826.223 244.693 826.223 243.84 826.863 243.2L893.103 189.44L829.103 137.6C828.676 137.173 828.783 136.32 829.423 135.04L845.103 115.52C845.956 114.667 846.703 114.56 847.343 115.2L933.743 184C935.449 185.28 936.303 186.987 936.303 189.12C936.303 191.253 935.449 193.173 933.743 194.88L845.103 265.6Z" fill="#1D3557"/>
<path d="M345.013 307.2C333.493 307.2 322.933 304.32 313.333 298.56C303.946 292.587 296.373 284.8 290.613 275.2C285.066 265.387 282.293 254.613 282.293 242.88V228.16C282.293 227.093 282.826 226.56 283.893 226.56H319.733C320.586 226.56 321.013 227.093 321.013 228.16V242.88C321.013 249.92 323.359 256 328.053 261.12C332.746 266.027 338.399 268.48 345.013 268.48C351.626 268.48 357.279 265.92 361.973 260.8C366.666 255.68 369.013 249.707 369.013 242.88C369.013 234.987 363.893 228.16 353.653 222.4C350.239 220.48 344.906 217.493 337.653 213.44C330.399 209.387 323.573 205.547 317.173 201.92C305.439 195.093 296.693 186.56 290.933 176.32C285.386 165.867 282.613 154.133 282.613 141.12C282.613 129.173 285.493 118.507 291.253 109.12C297.013 99.52 304.586 91.9467 313.973 86.4C323.573 80.8533 333.919 78.08 345.013 78.08C356.319 78.08 366.666 80.96 376.053 86.72C385.653 92.2667 393.226 99.84 398.773 109.44C404.533 118.827 407.413 129.387 407.413 141.12V167.36C407.413 168.213 406.986 168.64 406.133 168.64H370.293C369.439 168.64 369.013 168.213 369.013 167.36L368.693 141.12C368.693 133.653 366.346 127.573 361.653 122.88C356.959 118.187 351.413 115.84 345.013 115.84C338.399 115.84 332.746 118.4 328.053 123.52C323.359 128.427 321.013 134.293 321.013 141.12C321.013 148.16 322.506 154.027 325.493 158.72C328.479 163.413 333.919 167.893 341.813 172.16C342.879 172.8 344.906 173.973 347.893 175.68C351.093 177.173 354.506 178.987 358.133 181.12C361.759 183.04 364.959 184.747 367.733 186.24C370.719 187.733 372.533 188.693 373.173 189.12C383.839 195.093 392.266 202.453 398.453 211.2C404.639 219.733 407.733 230.293 407.733 242.88C407.733 255.04 404.853 266.027 399.093 275.84C393.546 285.44 385.973 293.12 376.373 298.88C366.986 304.427 356.533 307.2 345.013 307.2ZM431.268 304C430.414 304 429.988 303.467 429.988 302.4L430.308 82.56C430.308 81.7067 430.734 81.28 431.588 81.28H534.308C535.161 81.28 535.588 81.8133 535.588 82.88V118.72C535.588 119.573 535.161 120 534.308 120H468.708V169.92H534.308C535.161 169.92 535.588 170.347 535.588 171.2L535.908 207.36C535.908 208.213 535.481 208.64 534.628 208.64H468.708V264.64H534.628C535.481 264.64 535.908 265.173 535.908 266.24V302.72C535.908 303.573 535.481 304 534.628 304H431.268ZM596.363 304C595.509 304 595.083 303.467 595.083 302.4V120H553.483C552.416 120 551.883 119.467 551.883 118.4L552.203 82.56C552.203 81.7067 552.629 81.28 553.483 81.28H675.083C676.149 81.28 676.683 81.7067 676.683 82.56V118.4C676.683 119.467 676.256 120 675.403 120H633.483L633.802 302.4C633.802 303.467 633.376 304 632.523 304H596.363ZM693.768 304C692.914 304 692.488 303.467 692.488 302.4L692.808 82.56C692.808 81.7067 693.234 81.28 694.088 81.28H796.808C797.661 81.28 798.088 81.8133 798.088 82.88V118.72C798.088 119.573 797.661 120 796.808 120H731.208V169.92H796.808C797.661 169.92 798.088 170.347 798.088 171.2L798.408 207.36C798.408 208.213 797.981 208.64 797.128 208.64H731.208V264.64H797.128C797.981 264.64 798.408 265.173 798.408 266.24V302.72C798.408 303.573 797.981 304 797.128 304H693.768Z" fill="#E63946"/>
<path d="M31.5059 388.867H13.6348L9.62109 400H3.82031L20.1094 357.344H25.0312L41.3496 400H35.5781L31.5059 388.867ZM15.334 384.238H29.8359L22.5703 364.287L15.334 384.238ZM111.234 394.404C109.789 396.475 107.768 398.027 105.17 399.062C102.592 400.078 99.584 400.586 96.1465 400.586C92.6699 400.586 89.584 399.775 86.8887 398.154C84.1934 396.514 82.1035 394.189 80.6191 391.182C79.1543 388.174 78.4023 384.688 78.3633 380.723V377.002C78.3633 370.576 79.8574 365.596 82.8457 362.061C85.8535 358.525 90.0723 356.758 95.502 356.758C99.9551 356.758 103.539 357.9 106.254 360.186C108.969 362.451 110.629 365.674 111.234 369.854H105.609C104.555 364.209 101.195 361.387 95.5312 361.387C91.7617 361.387 88.9004 362.715 86.9473 365.371C85.0137 368.008 84.0371 371.836 84.0176 376.855V380.342C84.0176 385.127 85.1113 388.936 87.2988 391.768C89.4863 394.58 92.4453 395.986 96.1758 395.986C98.2852 395.986 100.131 395.752 101.713 395.283C103.295 394.814 104.604 394.023 105.639 392.91V383.33H95.7656V378.76H111.234V394.404ZM177.75 380.283H159.264V395.4H180.738V400H153.639V357.344H180.445V361.973H159.264V375.684H177.75V380.283ZM175.699 353.594V353.887H171.217L166.822 348.906L162.457 353.887H157.975V353.535L165.182 345.566H168.463L175.699 353.594ZM253.523 400H247.869L226.395 367.129V400H220.74V357.344H226.395L247.928 390.361V357.344H253.523V400ZM327.891 386.465C327.363 390.977 325.693 394.463 322.881 396.924C320.088 399.365 316.367 400.586 311.719 400.586C306.68 400.586 302.637 398.779 299.59 395.166C296.562 391.553 295.049 386.719 295.049 380.664V376.562C295.049 372.598 295.752 369.111 297.158 366.104C298.584 363.096 300.596 360.791 303.193 359.189C305.791 357.568 308.799 356.758 312.217 356.758C316.748 356.758 320.381 358.027 323.115 360.566C325.85 363.086 327.441 366.582 327.891 371.055H322.236C321.748 367.656 320.684 365.195 319.043 363.672C317.422 362.148 315.146 361.387 312.217 361.387C308.623 361.387 305.801 362.715 303.75 365.371C301.719 368.027 300.703 371.807 300.703 376.709V380.84C300.703 385.469 301.67 389.15 303.604 391.885C305.537 394.619 308.242 395.986 311.719 395.986C314.844 395.986 317.236 395.283 318.896 393.877C320.576 392.451 321.689 389.98 322.236 386.465H327.891ZM374.631 400H369.006V357.344H374.631V400ZM442.025 388.867H424.154L420.141 400H414.34L430.629 357.344H435.551L451.869 400H446.098L442.025 388.867ZM425.854 384.238H440.355L433.09 364.287L425.854 384.238ZM538.494 400V357.344H550.535C554.246 357.344 557.527 358.164 560.379 359.805C563.23 361.445 565.428 363.779 566.971 366.807C568.533 369.834 569.324 373.311 569.344 377.236V379.961C569.344 383.984 568.562 387.51 567 390.537C565.457 393.564 563.24 395.889 560.35 397.51C557.479 399.131 554.129 399.961 550.301 400H538.494ZM544.119 361.973V395.4H550.037C554.373 395.4 557.742 394.053 560.145 391.357C562.566 388.662 563.777 384.824 563.777 379.844V377.354C563.777 372.51 562.635 368.75 560.35 366.074C558.084 363.379 554.861 362.012 550.682 361.973H544.119ZM616.904 400H611.279V357.344H616.904V400ZM691.711 394.404C690.266 396.475 688.244 398.027 685.646 399.062C683.068 400.078 680.061 400.586 676.623 400.586C673.146 400.586 670.061 399.775 667.365 398.154C664.67 396.514 662.58 394.189 661.096 391.182C659.631 388.174 658.879 384.688 658.84 380.723V377.002C658.84 370.576 660.334 365.596 663.322 362.061C666.33 358.525 670.549 356.758 675.979 356.758C680.432 356.758 684.016 357.9 686.73 360.186C689.445 362.451 691.105 365.674 691.711 369.854H686.086C685.031 364.209 681.672 361.387 676.008 361.387C672.238 361.387 669.377 362.715 667.424 365.371C665.49 368.008 664.514 371.836 664.494 376.855V380.342C664.494 385.127 665.588 388.936 667.775 391.768C669.963 394.58 672.922 395.986 676.652 395.986C678.762 395.986 680.607 395.752 682.189 395.283C683.771 394.814 685.08 394.023 686.115 392.91V383.33H676.242V378.76H691.711V394.404ZM740.15 400H734.525V357.344H740.15V400ZM812.057 361.973H798.346V400H792.75V361.973H779.068V357.344H812.057V361.973ZM872.596 388.867H854.725L850.711 400H844.91L861.199 357.344H866.121L882.439 400H876.668L872.596 388.867ZM856.424 384.238H870.926L863.66 364.287L856.424 384.238ZM926.836 395.4H947.051V400H921.182V357.344H926.836V395.4Z" fill="#1D3557"/>
</svg>
